<svg width="18" height="18" viewBox="0 0 18 18" fill="none" xmlns="http://www.w3.org/2000/svg">
<g clip-path="url(#clip0_0_623)">
<path d="M18 0H0.36734V17.28H18V0Z" fill="white" fill-opacity="0.01"/>
<path fill-rule="evenodd" clip-rule="evenodd" d="M4.19243 4.43658C3.69137 4.43658 3.45587 4.85499 3.57042 5.1877C4.18785 6.98092 5.32892 9.64612 7.01326 11.2968C8.69919 12.949 11.4226 14.0689 13.255 14.6749C13.6482 14.8049 14.0504 14.5234 14.0504 14.0824V12.2779L12.4422 11.4017L10.7125 12.2493C10.5672 12.3204 10.4029 12.3427 10.2439 12.3129L10.3825 11.5758C10.2439 12.3129 10.2441 12.3129 10.2439 12.3129L10.2419 12.3125L10.2393 12.312L10.2329 12.3107L10.2144 12.3069C10.1996 12.3038 10.18 12.2996 10.1559 12.294C10.1079 12.2829 10.0419 12.2665 9.96104 12.2436C9.7997 12.198 9.57736 12.1261 9.31938 12.0184C8.8066 11.8042 8.1335 11.4401 7.52188 10.8408C6.90991 10.241 6.53599 9.57874 6.31517 9.07254C6.20415 8.81806 6.12983 8.59847 6.08248 8.43888C6.05876 8.35893 6.04167 8.29356 6.03005 8.24584C6.02423 8.22196 6.01977 8.20246 6.01652 8.1877L6.01253 8.16916L6.01118 8.16263L6.01067 8.16007L6.01045 8.15897C6.0104 8.15873 6.01025 8.15798 6.7459 8.01197L6.01025 8.15798C5.97745 7.99271 6.00125 7.82121 6.07782 7.67113L6.93346 5.99405L6.0512 4.43658H4.19243ZM7.54596 8.09413C7.57894 8.19599 7.62582 8.32557 7.69004 8.47276C7.85717 8.85588 8.13372 9.34015 8.57177 9.76944C9.01021 10.1991 9.50492 10.4703 9.89743 10.6342C10.056 10.7004 10.1946 10.7478 10.3014 10.7803L11.7837 10.054C11.7836 10.054 11.7837 10.054 11.7837 10.054C12.2189 9.84068 12.7323 9.85156 13.1581 10.0835L14.7815 10.9681C15.2511 11.2239 15.5504 11.7146 15.5504 12.2559V14.0824C15.5504 15.5017 14.1894 16.5638 12.7841 16.099C10.9225 15.4834 7.91181 14.2776 5.96337 12.3681C4.01333 10.4571 2.78114 7.50288 2.15213 5.67602C1.65981 4.2461 2.79531 2.93658 4.19243 2.93658H6.05587C6.58772 2.93658 7.08552 3.21924 7.35077 3.68741L8.24947 5.27391C8.49115 5.70058 8.50279 6.21873 8.27974 6.65589C8.27973 6.65591 8.27975 6.65587 8.27974 6.65589L7.54596 8.09413ZM12.4438 11.4009C12.4438 11.4009 12.4438 11.4009 12.4438 11.4009V11.4009Z" fill="#1A99FF"/>
<path fill-rule="evenodd" clip-rule="evenodd" d="M12.9377 2.49913C13.3517 2.51148 13.6774 2.85713 13.665 3.27116L13.5349 7.63353C13.5225 8.04756 13.1769 8.37319 12.7628 8.36083C12.3488 8.34848 12.0232 8.00283 12.0355 7.5888L12.1657 3.22643C12.178 2.8124 12.5237 2.48677 12.9377 2.49913Z" fill="#1A99FF"/>
<path fill-rule="evenodd" clip-rule="evenodd" d="M9.91825 5.40176C9.92223 4.98757 10.2612 4.65503 10.6754 4.65901L15.0395 4.70102C15.4537 4.70501 15.7862 5.04401 15.7822 5.45821C15.7783 5.8724 15.4393 6.20494 15.0251 6.20095L10.661 6.15895C10.2468 6.15496 9.91426 5.81596 9.91825 5.40176Z" fill="#1A99FF"/>
</g>
<defs>
<clipPath id="clip0_0_623">
<rect width="18" height="18" fill="white"/>
</clipPath>
</defs>
</svg>
