<svg xmlns="http://www.w3.org/2000/svg" width="20" height="20" viewBox="0 0 20 20" fill="none"><g id="deeditor_bgCarrier" stroke-width="0">
  <rect id="dee_c_e" x="-3" y="-3" width="26" height="26" rx="38.4" fill="#ff6e41" strokewidth="0"/>
</g>
<g id="Frame" clip-path="url(#clip0_0_599)">
<path id="Vector" d="M9.82164 9.02998C8.46686 8.98557 7.11879 9.2383 5.87211 9.77042L5.56813 11.9456C5.55536 12.0061 5.52451 12.0613 5.47966 12.1039C5.43481 12.1466 5.37807 12.1745 5.31697 12.1842L1.58754 12.8916C1.44955 12.9222 1.30633 12.9204 1.16918 12.8861C1.03204 12.8519 0.904731 12.7863 0.797314 12.6944C0.689899 12.6025 0.605318 12.4869 0.550252 12.3567C0.495186 12.2265 0.471144 12.0853 0.480026 11.9443L0.546712 9.84365C0.556222 9.54278 0.640073 9.24894 0.790779 8.98837C0.941485 8.72779 1.15436 8.50857 1.4104 8.35029C3.9594 6.76591 6.90273 5.93061 9.90399 5.93987C12.8845 5.99724 15.7844 6.91829 18.2518 8.59129C18.4972 8.75828 18.6953 8.98584 18.8269 9.2519C18.9585 9.51795 19.0191 9.81349 19.0029 10.1099L18.9091 12.2614C18.9075 12.3989 18.8748 12.5343 18.8134 12.6573C18.752 12.7804 18.6636 12.888 18.5548 12.9721C18.4459 13.0561 18.3195 13.1145 18.1849 13.1427C18.0503 13.171 17.911 13.1684 17.7776 13.1352L14.0679 12.3148C14.0073 12.3041 13.9517 12.2743 13.9093 12.2297C13.8669 12.1851 13.8399 12.128 13.8324 12.0669L13.6884 9.88351C12.4788 9.31555 11.1579 9.02399 9.82164 9.02998Z" fill="#f5f5f5"/>
</g>
<defs fill="#000000">
<clipPath id="clip0_0_599" fill="#000000">
<rect width="20" height="20" fill="#f5f5f5"/>
</clipPath>
</defs>
</svg>