<svg width="36" height="36" viewBox="0 0 36 36" fill="none" xmlns="http://www.w3.org/2000/svg">
<circle cx="18" cy="18" r="18" fill="url(#paint0_linear_84_76)"/>
<path d="M21 13C21 14.6568 19.6569 16 18 16C16.3432 16 15 14.6568 15 13C15 11.3432 16.3432 10 18 10C19.6569 10 21 11.3432 21 13Z" fill="white"/>
<path d="M26 15C26 16.1046 25.1046 17 24 17C22.8954 17 22 16.1046 22 15C22 13.8954 22.8954 13 24 13C25.1046 13 26 13.8954 26 15Z" fill="white"/>
<path d="M22 22C22 19.7909 20.2091 18 18 18C15.7909 18 14 19.7909 14 22V25H22V22Z" fill="white"/>
<path d="M14 15C14 16.1046 13.1046 17 12 17C10.8954 17 10 16.1046 10 15C10 13.8954 10.8954 13 12 13C13.1046 13 14 13.8954 14 15Z" fill="white"/>
<path d="M24 25V22C24 20.9459 23.7282 19.9552 23.2507 19.0943C23.4902 19.0327 23.7413 19 24 19C25.6569 19 27 20.3431 27 22V25H24Z" fill="white"/>
<path d="M12.7493 19.0943C12.2719 19.9552 12 20.9459 12 22V25H9V22C9 20.3431 10.3432 19 12 19C12.2587 19 12.5098 19.0327 12.7493 19.0943Z" fill="white"/>
<defs>
<linearGradient id="paint0_linear_84_76" x1="32" y1="3.5" x2="18" y2="18" gradientUnits="userSpaceOnUse">
<stop stop-color="#1A99FF"/>
<stop offset="1" stop-color="#2FB1EA"/>
</linearGradient>
</defs>
</svg>
