<svg width="18" height="18" viewBox="0 0 18 18" fill="none" xmlns="http://www.w3.org/2000/svg">
<g clip-path="url(#clip0_0_613)">
<path d="M9 9.75C9.41421 9.75 9.75 9.41421 9.75 9C9.75 8.58579 9.41421 8.25 9 8.25C8.58579 8.25 8.25 8.58579 8.25 9C8.25 9.41421 8.58579 9.75 9 9.75Z" fill="#1A99FF"/>
<path d="M12 9.75C12.4142 9.75 12.75 9.41421 12.75 9C12.75 8.58579 12.4142 8.25 12 8.25C11.5858 8.25 11.25 8.58579 11.25 9C11.25 9.41421 11.5858 9.75 12 9.75Z" fill="#1A99FF"/>
<path d="M6 9.75C6.41421 9.75 6.75 9.41421 6.75 9C6.75 8.58579 6.41421 8.25 6 8.25C5.58579 8.25 5.25 8.58579 5.25 9C5.25 9.41421 5.58579 9.75 6 9.75Z" fill="#1A99FF"/>
<path d="M14.3025 3.69752C13.0719 2.45889 11.4477 1.68843 9.70996 1.51895C7.9722 1.34947 6.22976 1.7916 4.78304 2.76912C3.33631 3.74663 2.27597 5.19827 1.78482 6.87378C1.29367 8.54928 1.40248 10.3436 2.0925 11.9475C2.16441 12.0966 2.18801 12.2644 2.16 12.4275L1.5 15.6C1.47457 15.7217 1.47976 15.8477 1.51511 15.9668C1.55045 16.086 1.61485 16.1944 1.7025 16.2825C1.77435 16.3538 1.8599 16.4099 1.954 16.4473C2.04809 16.4847 2.14878 16.5026 2.25 16.5H2.4L5.61 15.855C5.77314 15.8354 5.93859 15.8587 6.09 15.9225C7.69387 16.6125 9.48824 16.7213 11.1637 16.2302C12.8392 15.739 14.2909 14.6787 15.2684 13.232C16.2459 11.7853 16.688 10.0428 16.5186 8.30505C16.3491 6.56729 15.5786 4.94311 14.34 3.71252L14.3025 3.69752ZM14.925 9.96752C14.7784 10.863 14.4305 11.7136 13.9077 12.4552C13.3848 13.1968 12.7005 13.8102 11.9064 14.2492C11.1122 14.6881 10.2288 14.9412 9.32266 14.9894C8.41653 15.0377 7.51127 14.8797 6.675 14.5275C6.3784 14.4014 6.0598 14.3351 5.7375 14.3325C5.59671 14.3335 5.45624 14.346 5.3175 14.37L3.2025 14.7975L3.63 12.6825C3.71514 12.2245 3.66025 11.7514 3.4725 11.325C3.12029 10.4887 2.96235 9.58348 3.01057 8.67735C3.05878 7.77122 3.31189 6.88783 3.75085 6.09365C4.18982 5.29948 4.80319 4.61522 5.54482 4.09235C6.28645 3.56949 7.13701 3.22165 8.0325 3.07502C8.97245 2.92075 9.93563 2.9925 10.8424 3.28431C11.7491 3.57613 12.5733 4.07963 13.2468 4.75317C13.9204 5.42671 14.4239 6.25093 14.7157 7.15766C15.0075 8.06439 15.0793 9.02756 14.925 9.96752Z" fill="#1A99FF"/>
</g>
<defs>
<clipPath id="clip0_0_613">
<rect width="18" height="18" fill="white"/>
</clipPath>
</defs>
</svg>
