<svg width="20" height="20" viewBox="0 0 20 20" fill="none" xmlns="http://www.w3.org/2000/svg">
<path d="M13.3333 10V5C13.3333 3.1525 11.8458 1.64917 10.0175 1.64917C9.95883 1.64952 9.90041 1.65651 9.84332 1.67C8.9877 1.71149 8.18076 2.0803 7.58947 2.70013C6.99818 3.31996 6.66779 4.14337 6.66666 5V10C6.66666 11.8383 8.16166 13.3333 9.99999 13.3333C11.8383 13.3333 13.3333 11.8383 13.3333 10ZM8.33332 10V5C8.33332 4.08084 9.08082 3.33334 9.99999 3.33334C10.0456 3.33335 10.091 3.32917 10.1358 3.32084C10.99 3.38334 11.6667 4.1125 11.6667 5V10C11.6667 10.9192 10.9192 11.6667 9.99999 11.6667C9.08082 11.6667 8.33332 10.9192 8.33332 10Z" fill="#8294AF"/>
<path d="M5.00001 10H3.33334C3.33334 13.3933 5.88418 16.1967 9.16668 16.6092V18.3333H10.8333V16.6092C14.1158 16.1967 16.6667 13.3942 16.6667 10H15C15 12.7575 12.7575 15 10 15C7.24251 15 5.00001 12.7575 5.00001 10Z" fill="#8294AF"/>
</svg>
