<svg width="232" height="38" viewBox="0 0 232 38" fill="none" xmlns="http://www.w3.org/2000/svg">
<g clip-path="url(#clip0_82_46)">
<mask id="mask0_82_46" style="mask-type:luminance" maskUnits="userSpaceOnUse" x="0" y="0" width="272" height="38">
<path d="M271.748 0.5H0V37.5H271.748V0.5Z" fill="white"/>
</mask>
<g mask="url(#mask0_82_46)">
<path d="M12.4075 7.43532L24.815 14.4781V3.78888H0V14.4781L12.4075 7.43532Z" fill="#2FB1EA"/>
<path d="M12.4075 10.2031L0 17.2457V28.9414H24.815V17.2457L12.4075 10.2031Z" fill="#2FB1EA"/>
<path d="M48.5383 20.7916L45.2625 10.1064L41.9571 20.7916H48.5383ZM49.551 24.021H40.9448L39.426 28.941H35.3167L42.1061 7.81256H48.5084L55.3278 28.941H51.0695L49.551 24.021Z" fill="black"/>
<path d="M61.2234 28.9411H57.2328V6.7262H61.2234V28.9411Z" fill="black"/>
<path d="M71.8539 26.164C74.3851 26.164 75.9338 24.0512 75.9338 21.0329C75.9338 18.0146 74.3851 15.9014 71.8539 15.9014C69.3523 15.9014 67.804 18.0146 67.804 21.0329C67.804 24.0512 69.3526 26.164 71.8539 26.164ZM71.8539 12.7627C76.7375 12.7627 79.8644 15.9014 79.8644 21.0329C79.8644 26.164 76.7378 29.303 71.8539 29.303C66.9701 29.303 63.8435 26.164 63.8435 21.0329C63.8435 15.9014 66.9701 12.7627 71.8539 12.7627Z" fill="black"/>
<path d="M89.6607 26.164C92.1024 26.164 93.5917 24.0815 93.5917 21.0329C93.5917 17.9841 92.1024 15.9014 89.6607 15.9014C87.189 15.9014 85.7005 17.9841 85.7005 21.0329C85.7005 24.0815 87.189 26.164 89.6607 26.164ZM88.4398 12.7627C90.6138 12.7627 92.6085 13.8493 93.711 16.0225V13.125H97.4035V34.9777H93.4132V26.4359C92.2816 28.3372 90.4354 29.303 88.4098 29.303C84.5989 29.303 81.7402 26.2545 81.7402 21.0329C81.7402 15.8113 84.5989 12.7627 88.4398 12.7627Z" fill="black"/>
<path d="M106.575 26.4963C109.076 26.4963 110.714 24.6552 110.714 22.3612V21.6671L107.141 22.0292C105.205 22.2103 104.043 22.9645 104.043 24.4136C104.043 25.6209 104.848 26.4963 106.575 26.4963ZM106.634 19.6145L110.714 19.1917V18.4072C110.714 16.7773 109.79 15.63 107.706 15.63C106.009 15.63 104.699 16.3845 104.579 18.0144H100.947C101.066 14.0906 104.192 12.7626 107.706 12.7626C112.114 12.7626 114.704 14.8754 114.704 19.252V28.9411H110.982V26.0737C109.97 28.0658 108.033 29.3033 105.294 29.3033C101.78 29.3033 100.083 27.2809 100.083 24.6249C100.083 21.4557 102.585 20.0067 106.634 19.6145Z" fill="#2F2F37"/>
<path d="M131.439 22.7233C131.439 20.9426 130.278 19.7651 127.747 19.7651H122.595V25.6512H127.538C130.219 25.6512 131.439 24.534 131.439 22.7233ZM122.595 16.6264H127.36C129.652 16.6264 130.814 15.5097 130.814 13.8194C130.814 12.159 129.652 11.1026 127.3 11.1026H122.595V16.6264ZM135.608 23.2969C135.608 27.13 132.154 28.9411 127.925 28.9411H118.426V7.81244H127.717C131.707 7.81244 134.983 9.2913 134.983 13.1249C134.983 16.1734 132.928 17.8334 128.819 18.0748C132.601 18.2862 135.608 19.7651 135.608 23.2969Z" fill="#2FB1EA"/>
<path d="M143.946 26.4963C146.447 26.4963 148.085 24.6552 148.085 22.3612V21.6671L144.512 22.0292C142.576 22.2103 141.415 22.9645 141.415 24.4136C141.415 25.6209 142.218 26.4963 143.946 26.4963ZM144.006 19.6145L148.085 19.1917V18.4072C148.085 16.7773 147.162 15.63 145.077 15.63C143.38 15.63 142.07 16.3845 141.951 18.0144H138.317C138.437 14.0906 141.564 12.7626 145.077 12.7626C149.484 12.7626 152.075 14.8754 152.075 19.252V28.9411H148.353V26.0737C147.341 28.0658 145.405 29.3033 142.665 29.3033C139.151 29.3033 137.454 27.2809 137.454 24.6249C137.454 21.4557 139.956 20.0067 144.006 19.6145Z" fill="#2FB1EA"/>
<path d="M155.291 13.1249H159.013V15.9018C160.026 13.8493 161.931 12.7628 164.463 12.7628C168.037 12.7628 169.852 14.9058 169.852 18.86V28.9411H165.892V20.0972C165.892 17.5321 165.088 16.083 162.914 16.083C160.502 16.083 159.282 17.8938 159.282 20.6104V28.9411H155.291V13.1249Z" fill="#2FB1EA"/>
<path d="M183.282 28.9411L178.488 22.5423H177.059V28.9411H173.069V6.72607H177.059V19.403H178.518L183.044 13.125H187.749L181.347 20.6407L188.196 28.9411H183.282Z" fill="#1A99FF"/>
</g>
<path d="M217.494 27.8307C216.456 27.8307 215.489 27.6597 214.593 27.3176C213.711 26.9624 212.939 26.4691 212.277 25.8376C211.628 25.193 211.122 24.4365 210.758 23.5683C210.395 22.7 210.213 21.7528 210.213 20.7267C210.213 19.7005 210.395 18.7533 210.758 17.8851C211.122 17.0168 211.634 16.2669 212.296 15.6355C212.958 14.9909 213.73 14.4975 214.613 14.1555C215.496 13.8003 216.462 13.6227 217.514 13.6227C218.63 13.6227 219.649 13.82 220.57 14.2147C221.492 14.5962 222.271 15.1685 222.907 15.9315L221.271 17.4904C220.778 16.951 220.226 16.5498 219.616 16.2867C219.006 16.0104 218.344 15.8723 217.631 15.8723C216.917 15.8723 216.261 15.9907 215.664 16.2275C215.08 16.4643 214.568 16.7997 214.126 17.2339C213.698 17.668 213.36 18.1811 213.114 18.7731C212.88 19.3651 212.763 20.0163 212.763 20.7267C212.763 21.4371 212.88 22.0883 213.114 22.6803C213.36 23.2723 213.698 23.7853 214.126 24.2195C214.568 24.6536 215.08 24.9891 215.664 25.2259C216.261 25.4627 216.917 25.5811 217.631 25.5811C218.344 25.5811 219.006 25.4495 219.616 25.1864C220.226 24.9101 220.778 24.4957 221.271 23.9432L222.907 25.5219C222.271 26.2717 221.492 26.844 220.57 27.2387C219.649 27.6333 218.623 27.8307 217.494 27.8307Z" fill="#2F2F37"/>
<path d="M203.634 27.8307C202.596 27.8307 201.629 27.6597 200.734 27.3176C199.851 26.9624 199.079 26.4691 198.417 25.8376C197.768 25.193 197.262 24.4365 196.898 23.5683C196.535 22.7 196.353 21.7528 196.353 20.7267C196.353 19.7005 196.535 18.7533 196.898 17.8851C197.262 17.0168 197.774 16.2669 198.436 15.6355C199.098 14.9909 199.87 14.4975 200.753 14.1555C201.636 13.8003 202.603 13.6227 203.654 13.6227C204.77 13.6227 205.789 13.82 206.71 14.2147C207.632 14.5962 208.411 15.1685 209.047 15.9315L207.411 17.4904C206.918 16.951 206.366 16.5498 205.756 16.2867C205.146 16.0104 204.484 15.8723 203.771 15.8723C203.057 15.8723 202.401 15.9907 201.804 16.2275C201.22 16.4643 200.708 16.7997 200.266 17.2339C199.838 17.668 199.501 18.1811 199.254 18.7731C199.02 19.3651 198.903 20.0163 198.903 20.7267C198.903 21.4371 199.02 22.0883 199.254 22.6803C199.501 23.2723 199.838 23.7853 200.266 24.2195C200.708 24.6536 201.22 24.9891 201.804 25.2259C202.401 25.4627 203.057 25.5811 203.771 25.5811C204.484 25.5811 205.146 25.4495 205.756 25.1864C206.366 24.9101 206.918 24.4957 207.411 23.9432L209.047 25.5219C208.411 26.2717 207.632 26.844 206.71 27.2387C205.789 27.6333 204.764 27.8307 203.634 27.8307Z" fill="#2F2F37"/>
</g>
<defs>
<clipPath id="clip0_82_46">
<rect width="232" height="37" fill="white" transform="translate(0 0.5)"/>
</clipPath>
</defs>
</svg>
